<svg width="201" height="29" viewBox="0 0 201 29" fill="none" xmlns="http://www.w3.org/2000/svg">
<path d="M8.424 28.16C7.63467 28.16 7.06933 27.9893 6.728 27.648C6.38667 27.2853 6.216 26.6133 6.216 25.632C6.216 24.9707 6.28 24.128 6.408 23.104C6.55733 22.0587 6.792 20.6293 7.112 18.816C7.66667 15.4667 8.104 12.5653 8.424 10.112C8.616 8.576 8.712 7.296 8.712 6.272C8.712 5.312 8.36 4.832 7.656 4.832C7.10133 4.832 6.42933 5.12 5.64 5.696C4.872 6.25067 4.01867 7.14667 3.08 8.384C2.78133 8.78933 2.45067 8.992 2.088 8.992C1.78933 8.992 1.52267 8.85333 1.288 8.576C1.07467 8.27733 0.968 7.94667 0.968 7.584C0.968 7.24267 1.032 6.90133 1.16 6.56C1.30933 6.19733 1.544 5.792 1.864 5.344C2.888 3.91467 4.02933 2.816 5.288 2.048C6.54667 1.25867 7.80533 0.863998 9.064 0.863998C10.2373 0.863998 11.1333 1.23733 11.752 1.984C12.392 2.73067 12.712 3.81867 12.712 5.248C12.712 5.824 12.6587 6.50667 12.552 7.296C12.4453 8.064 12.3493 8.69333 12.264 9.184C12.1787 9.67467 12.1147 10.016 12.072 10.208C13.288 6.73067 14.6533 4.30933 16.168 2.944C17.6827 1.55733 19.3467 0.863998 21.16 0.863998C22.5467 0.863998 23.6347 1.35467 24.424 2.336C25.2347 3.31733 25.64 4.704 25.64 6.496C25.64 7.2 25.544 8.07467 25.352 9.12C26.4187 6.176 27.6667 4.064 29.096 2.784C30.5253 1.504 32.168 0.863998 34.024 0.863998C35.5173 0.863998 36.6587 1.344 37.448 2.304C38.2587 3.264 38.664 4.608 38.664 6.336C38.664 7.27467 38.5253 8.416 38.248 9.76L36.296 18.912C36.0827 19.9787 35.976 20.896 35.976 21.664C35.976 22.56 36.1787 23.232 36.584 23.68C37.0107 24.128 37.5973 24.352 38.344 24.352C39.048 24.352 39.7307 24.1173 40.392 23.648C41.0747 23.1787 41.8747 22.4 42.792 21.312C43.048 21.0133 43.336 20.864 43.656 20.864C43.9333 20.864 44.1467 20.992 44.296 21.248C44.4667 21.504 44.552 21.856 44.552 22.304C44.552 23.136 44.3493 23.7973 43.944 24.288C42.8347 25.632 41.736 26.6133 40.648 27.232C39.56 27.8507 38.4187 28.16 37.224 28.16C35.4107 28.16 33.992 27.6267 32.968 26.56C31.944 25.472 31.432 24.0213 31.432 22.208C31.432 20.9493 31.688 19.1253 32.2 16.736L33.48 10.88C33.5227 10.688 33.5973 10.3467 33.704 9.856C33.8107 9.36533 33.896 8.90667 33.96 8.48C34.024 8.032 34.056 7.59467 34.056 7.168C34.056 6.42133 33.9067 5.86667 33.608 5.504C33.3307 5.12 32.9253 4.928 32.392 4.928C31.3893 4.928 30.3333 5.57867 29.224 6.88C28.136 8.16 27.0907 10.2933 26.088 13.28C25.1067 16.2667 24.3067 20.1493 23.688 24.928C23.5387 26.208 23.272 27.072 22.888 27.52C22.5253 27.9467 21.928 28.16 21.096 28.16C20.3707 28.16 19.8373 27.9893 19.496 27.648C19.176 27.3067 19.016 26.6667 19.016 25.728C19.016 24.8533 19.1333 23.712 19.368 22.304C19.6027 20.8747 19.9013 19.2 20.264 17.28C21.2453 12.1173 21.736 8.78933 21.736 7.296C21.736 6.48533 21.576 5.888 21.256 5.504C20.9573 5.12 20.4987 4.928 19.88 4.928C18.8347 4.928 17.7573 5.52533 16.648 6.72C15.5387 7.89333 14.4507 9.99467 13.384 13.024C12.3387 16.032 11.464 20.1067 10.76 25.248C10.6107 26.336 10.3867 27.0933 10.088 27.52C9.81067 27.9467 9.256 28.16 8.424 28.16ZM58.2935 18.176C58.5708 18.176 58.7842 18.3147 58.9335 18.592C59.0828 18.8693 59.1575 19.2213 59.1575 19.648C59.1575 20.672 58.8482 21.28 58.2295 21.472C56.9495 21.92 55.5415 22.176 54.0055 22.24C53.6002 24.032 52.8002 25.472 51.6055 26.56C50.4108 27.6267 49.0562 28.16 47.5415 28.16C46.2615 28.16 45.1628 27.8507 44.2455 27.232C43.3495 26.6133 42.6668 25.792 42.1975 24.768C41.7282 23.744 41.4935 22.6347 41.4935 21.44C41.4935 19.8187 41.8028 18.3787 42.4215 17.12C43.0402 15.84 43.8935 14.848 44.9815 14.144C46.0695 13.4187 47.2748 13.056 48.5975 13.056C50.2188 13.056 51.5202 13.6213 52.5015 14.752C53.5042 15.8613 54.0908 17.2373 54.2615 18.88C55.2642 18.816 56.4588 18.6027 57.8455 18.24C58.0162 18.1973 58.1655 18.176 58.2935 18.176ZM47.7975 24.768C48.4802 24.768 49.0668 24.4907 49.5575 23.936C50.0695 23.3813 50.4108 22.5813 50.5815 21.536C49.9202 21.088 49.4082 20.5013 49.0455 19.776C48.7042 19.0507 48.5335 18.2827 48.5335 17.472C48.5335 17.1307 48.5655 16.7893 48.6295 16.448H48.4695C47.6162 16.448 46.9015 16.864 46.3255 17.696C45.7708 18.5067 45.4935 19.6587 45.4935 21.152C45.4935 22.3253 45.7175 23.2213 46.1655 23.84C46.6348 24.4587 47.1788 24.768 47.7975 24.768ZM72.5635 18.272C72.6275 18.2507 72.7342 18.24 72.8835 18.24C73.2035 18.24 73.4488 18.3467 73.6195 18.56C73.7902 18.7733 73.8755 19.0613 73.8755 19.424C73.8755 20.0853 73.7475 20.608 73.4915 20.992C73.2355 21.3547 72.8515 21.6213 72.3395 21.792C71.3582 22.112 70.3128 22.272 69.2035 22.272C68.2648 22.272 67.3795 22.144 66.5475 21.888C65.9288 22.8907 65.2462 23.9253 64.4995 24.992C63.6462 26.208 62.9102 27.04 62.2915 27.488C61.6728 27.936 60.9688 28.16 60.1795 28.16C59.3048 28.16 58.6115 27.8187 58.0995 27.136C57.6088 26.4533 57.2995 25.376 57.1715 23.904C56.9155 20.9173 56.7875 18.304 56.7875 16.064V14.944C56.8088 14.24 57.0008 13.7493 57.3635 13.472C57.7262 13.1947 58.2702 13.056 58.9955 13.056C59.5502 13.056 59.9555 13.184 60.2115 13.44C60.4888 13.6747 60.6275 14.08 60.6275 14.656C60.6275 17.1093 60.7768 20.2987 61.0755 24.224C62.3555 22.3253 63.3155 20.8107 63.9555 19.68C63.6355 19.0613 63.4755 18.3253 63.4755 17.472C63.4755 16.7467 63.6355 16.0427 63.9555 15.36C64.2755 14.6773 64.7128 14.1227 65.2675 13.696C65.8222 13.2693 66.4515 13.056 67.1555 13.056C67.7742 13.056 68.2755 13.28 68.6595 13.728C69.0435 14.1547 69.2355 14.784 69.2355 15.616C69.2355 16.576 68.9795 17.6747 68.4675 18.912C69.2782 18.8693 70.3555 18.7093 71.6995 18.432L72.5635 18.272ZM75.2905 10.976C74.3945 10.976 73.7225 10.7733 73.2745 10.368C72.8265 9.94133 72.6025 9.35467 72.6025 8.608C72.6025 7.86133 72.8905 7.24267 73.4665 6.752C74.0638 6.24 74.7998 5.984 75.6745 5.984C76.4638 5.984 77.1038 6.176 77.5945 6.56C78.0852 6.944 78.3305 7.488 78.3305 8.192C78.3305 9.04533 78.0532 9.728 77.4985 10.24C76.9438 10.7307 76.2078 10.976 75.2905 10.976ZM75.0345 28.16C73.6478 28.16 72.6345 27.6693 71.9945 26.688C71.3758 25.7067 71.0665 24.4053 71.0665 22.784C71.0665 21.824 71.1838 20.5973 71.4185 19.104C71.6745 17.5893 71.9945 16.1813 72.3785 14.88C72.5705 14.1973 72.8265 13.728 73.1465 13.472C73.4665 13.216 73.9785 13.088 74.6825 13.088C75.7705 13.088 76.3145 13.4507 76.3145 14.176C76.3145 14.7093 76.1118 15.9467 75.7065 17.888C75.1945 20.2347 74.9385 21.824 74.9385 22.656C74.9385 23.296 75.0238 23.7867 75.1945 24.128C75.3652 24.4693 75.6532 24.64 76.0585 24.64C76.4425 24.64 76.9225 24.3733 77.4985 23.84C78.0745 23.3067 78.8425 22.464 79.8025 21.312C80.0585 21.0133 80.3465 20.864 80.6665 20.864C80.9438 20.864 81.1572 20.992 81.3065 21.248C81.4772 21.504 81.5625 21.856 81.5625 22.304C81.5625 23.1573 81.3598 23.8187 80.9545 24.288C78.8425 26.8693 76.8692 28.16 75.0345 28.16ZM90.4295 21.824C90.7068 21.824 90.9202 21.952 91.0695 22.208C91.2402 22.464 91.3255 22.816 91.3255 23.264C91.3255 24.032 91.1442 24.6933 90.7815 25.248C90.1842 26.1653 89.3948 26.88 88.4135 27.392C87.4535 27.904 86.3015 28.16 84.9575 28.16C82.9095 28.16 81.3202 27.552 80.1895 26.336C79.0588 25.0987 78.4935 23.4347 78.4935 21.344C78.4935 19.872 78.8028 18.5067 79.4215 17.248C80.0402 15.968 80.8935 14.9547 81.9815 14.208C83.0908 13.4613 84.3388 13.088 85.7255 13.088C86.9628 13.088 87.9548 13.4613 88.7015 14.208C89.4482 14.9333 89.8215 15.9253 89.8215 17.184C89.8215 18.656 89.2882 19.9253 88.2215 20.992C87.1762 22.0373 85.3842 22.8693 82.8455 23.488C83.3575 24.4693 84.2215 24.96 85.4375 24.96C86.3122 24.96 87.0268 24.7573 87.5815 24.352C88.1575 23.9467 88.8188 23.264 89.5655 22.304C89.8215 21.984 90.1095 21.824 90.4295 21.824ZM85.1815 16.224C84.3922 16.224 83.7202 16.6827 83.1655 17.6C82.6322 18.5173 82.3655 19.6267 82.3655 20.928V20.992C83.6242 20.6933 84.6162 20.2453 85.3415 19.648C86.0668 19.0507 86.4295 18.3573 86.4295 17.568C86.4295 17.1627 86.3122 16.8427 86.0775 16.608C85.8642 16.352 85.5655 16.224 85.1815 16.224ZM94.1138 20.128C93.6018 20.1707 93.1858 20.0213 92.8658 19.68C92.5671 19.3387 92.4178 18.8587 92.4178 18.24C92.4178 17.664 92.5564 17.2373 92.8338 16.96C93.1324 16.6827 93.5591 16.5227 94.1138 16.48L100.674 15.84C101.207 15.7973 101.612 15.936 101.89 16.256C102.188 16.5547 102.338 17.0027 102.338 17.6C102.338 18.752 101.783 19.3813 100.674 19.488L94.1138 20.128ZM111.148 28.16C109.057 28.16 107.425 27.5733 106.252 26.4C105.1 25.2053 104.524 23.6373 104.524 21.696C104.524 19.968 104.865 18.4533 105.548 17.152C106.231 15.8507 107.116 14.848 108.204 14.144C109.292 13.44 110.433 13.088 111.628 13.088C112.801 13.088 113.708 13.44 114.348 14.144C115.009 14.8267 115.34 15.712 115.34 16.8C115.34 17.696 115.137 18.4533 114.732 19.072C114.348 19.6907 113.836 20 113.196 20C112.791 20 112.46 19.904 112.204 19.712C111.969 19.52 111.852 19.2533 111.852 18.912C111.852 18.7627 111.873 18.592 111.916 18.4C111.959 18.208 111.991 18.0693 112.012 17.984C112.119 17.664 112.172 17.3653 112.172 17.088C112.172 16.8107 112.097 16.5973 111.948 16.448C111.82 16.2987 111.628 16.224 111.372 16.224C110.881 16.224 110.423 16.448 109.996 16.896C109.569 17.3227 109.228 17.9093 108.972 18.656C108.716 19.4027 108.588 20.224 108.588 21.12C108.588 23.5947 109.665 24.832 111.82 24.832C112.695 24.832 113.633 24.544 114.636 23.968C115.66 23.3707 116.663 22.4853 117.644 21.312C117.9 21.0133 118.188 20.864 118.508 20.864C118.785 20.864 118.999 20.992 119.148 21.248C119.319 21.504 119.404 21.856 119.404 22.304C119.404 23.1147 119.201 23.776 118.796 24.288C117.793 25.5253 116.588 26.4853 115.18 27.168C113.793 27.8293 112.449 28.16 111.148 28.16ZM133.137 18.176C133.415 18.176 133.628 18.3147 133.777 18.592C133.927 18.8693 134.001 19.2213 134.001 19.648C134.001 20.672 133.692 21.28 133.073 21.472C131.793 21.92 130.385 22.176 128.849 22.24C128.444 24.032 127.644 25.472 126.449 26.56C125.255 27.6267 123.9 28.16 122.385 28.16C121.105 28.16 120.007 27.8507 119.089 27.232C118.193 26.6133 117.511 25.792 117.041 24.768C116.572 23.744 116.337 22.6347 116.337 21.44C116.337 19.8187 116.647 18.3787 117.265 17.12C117.884 15.84 118.737 14.848 119.825 14.144C120.913 13.4187 122.119 13.056 123.441 13.056C125.063 13.056 126.364 13.6213 127.345 14.752C128.348 15.8613 128.935 17.2373 129.105 18.88C130.108 18.816 131.303 18.6027 132.689 18.24C132.86 18.1973 133.009 18.176 133.137 18.176ZM122.641 24.768C123.324 24.768 123.911 24.4907 124.401 23.936C124.913 23.3813 125.255 22.5813 125.425 21.536C124.764 21.088 124.252 20.5013 123.889 19.776C123.548 19.0507 123.377 18.2827 123.377 17.472C123.377 17.1307 123.409 16.7893 123.473 16.448H123.313C122.46 16.448 121.745 16.864 121.169 17.696C120.615 18.5067 120.337 19.6587 120.337 21.152C120.337 22.3253 120.561 23.2213 121.009 23.84C121.479 24.4587 122.023 24.768 122.641 24.768ZM133.527 28.16C132.716 28.16 132.14 27.7333 131.799 26.88C131.479 26.0267 131.319 24.6613 131.319 22.784C131.319 20.0107 131.713 17.376 132.503 14.88C132.695 14.2613 133.004 13.8133 133.431 13.536C133.879 13.2373 134.497 13.088 135.287 13.088C135.713 13.088 136.012 13.1413 136.183 13.248C136.353 13.3547 136.439 13.5573 136.439 13.856C136.439 14.1973 136.279 14.9653 135.959 16.16C135.745 17.0133 135.575 17.76 135.447 18.4C135.319 19.04 135.212 19.8293 135.127 20.768C135.831 18.9333 136.62 17.44 137.495 16.288C138.369 15.136 139.223 14.3147 140.055 13.824C140.908 13.3333 141.687 13.088 142.391 13.088C143.777 13.088 144.471 13.7813 144.471 15.168C144.471 16 144.236 17.504 143.767 19.68C143.361 21.536 143.159 22.7627 143.159 23.36C143.159 24.2133 143.468 24.64 144.087 24.64C144.513 24.64 145.015 24.384 145.591 23.872C146.188 23.3387 146.977 22.4853 147.959 21.312C148.215 21.0133 148.503 20.864 148.823 20.864C149.1 20.864 149.313 20.992 149.463 21.248C149.633 21.504 149.719 21.856 149.719 22.304C149.719 23.1573 149.516 23.8187 149.111 24.288C148.193 25.4187 147.201 26.3467 146.135 27.072C145.089 27.7973 143.895 28.16 142.551 28.16C141.463 28.16 140.641 27.8507 140.087 27.232C139.532 26.592 139.255 25.6747 139.255 24.48C139.255 23.8827 139.404 22.816 139.703 21.28C139.98 19.936 140.119 19.008 140.119 18.496C140.119 18.1547 140.001 17.984 139.767 17.984C139.489 17.984 139.095 18.3467 138.583 19.072C138.092 19.776 137.58 20.7147 137.047 21.888C136.535 23.0613 136.119 24.2987 135.799 25.6C135.564 26.6027 135.287 27.2853 134.967 27.648C134.668 27.9893 134.188 28.16 133.527 28.16ZM149.402 28.16C148.591 28.16 148.015 27.7333 147.674 26.88C147.354 26.0267 147.194 24.6613 147.194 22.784C147.194 20.0107 147.588 17.376 148.378 14.88C148.57 14.2613 148.879 13.8133 149.306 13.536C149.754 13.2373 150.372 13.088 151.162 13.088C151.588 13.088 151.887 13.1413 152.058 13.248C152.228 13.3547 152.314 13.5573 152.314 13.856C152.314 14.1973 152.154 14.9653 151.834 16.16C151.62 17.0133 151.45 17.76 151.322 18.4C151.194 19.04 151.087 19.8293 151.002 20.768C151.706 18.9333 152.495 17.44 153.37 16.288C154.244 15.136 155.098 14.3147 155.93 13.824C156.783 13.3333 157.562 13.088 158.266 13.088C159.652 13.088 160.346 13.7813 160.346 15.168C160.346 16 160.111 17.504 159.642 19.68C159.236 21.536 159.034 22.7627 159.034 23.36C159.034 24.2133 159.343 24.64 159.962 24.64C160.388 24.64 160.89 24.384 161.466 23.872C162.063 23.3387 162.852 22.4853 163.834 21.312C164.09 21.0133 164.378 20.864 164.698 20.864C164.975 20.864 165.188 20.992 165.338 21.248C165.508 21.504 165.594 21.856 165.594 22.304C165.594 23.1573 165.391 23.8187 164.986 24.288C164.068 25.4187 163.076 26.3467 162.01 27.072C160.964 27.7973 159.77 28.16 158.426 28.16C157.338 28.16 156.516 27.8507 155.962 27.232C155.407 26.592 155.13 25.6747 155.13 24.48C155.13 23.8827 155.279 22.816 155.578 21.28C155.855 19.936 155.994 19.008 155.994 18.496C155.994 18.1547 155.876 17.984 155.642 17.984C155.364 17.984 154.97 18.3467 154.458 19.072C153.967 19.776 153.455 20.7147 152.922 21.888C152.41 23.0613 151.994 24.2987 151.674 25.6C151.439 26.6027 151.162 27.2853 150.842 27.648C150.543 27.9893 150.063 28.16 149.402 28.16ZM177.277 20.864C177.554 20.864 177.767 20.992 177.917 21.248C178.087 21.504 178.173 21.856 178.173 22.304C178.173 23.1573 177.97 23.8187 177.565 24.288C176.775 25.248 175.655 26.1333 174.205 26.944C172.775 27.7547 171.239 28.16 169.597 28.16C167.357 28.16 165.618 27.552 164.381 26.336C163.143 25.12 162.525 23.456 162.525 21.344C162.525 19.872 162.834 18.5067 163.453 17.248C164.071 15.968 164.925 14.9547 166.013 14.208C167.122 13.4613 168.37 13.088 169.757 13.088C170.994 13.088 171.986 13.4613 172.733 14.208C173.479 14.9333 173.853 15.9253 173.853 17.184C173.853 18.656 173.319 19.9253 172.253 20.992C171.207 22.0373 169.426 22.8693 166.909 23.488C167.442 24.4693 168.455 24.96 169.949 24.96C170.909 24.96 171.997 24.6293 173.213 23.968C174.45 23.2853 175.517 22.4 176.413 21.312C176.669 21.0133 176.957 20.864 177.277 20.864ZM169.213 16.224C168.423 16.224 167.751 16.6827 167.197 17.6C166.663 18.5173 166.397 19.6267 166.397 20.928V20.992C167.655 20.6933 168.647 20.2453 169.373 19.648C170.098 19.0507 170.461 18.3573 170.461 17.568C170.461 17.1627 170.343 16.8427 170.109 16.608C169.895 16.352 169.597 16.224 169.213 16.224ZM181.679 28.16C179.589 28.16 177.957 27.5733 176.783 26.4C175.631 25.2053 175.055 23.6373 175.055 21.696C175.055 19.968 175.397 18.4533 176.079 17.152C176.762 15.8507 177.647 14.848 178.735 14.144C179.823 13.44 180.965 13.088 182.159 13.088C183.333 13.088 184.239 13.44 184.879 14.144C185.541 14.8267 185.871 15.712 185.871 16.8C185.871 17.696 185.669 18.4533 185.263 19.072C184.879 19.6907 184.367 20 183.727 20C183.322 20 182.991 19.904 182.735 19.712C182.501 19.52 182.383 19.2533 182.383 18.912C182.383 18.7627 182.405 18.592 182.447 18.4C182.49 18.208 182.522 18.0693 182.543 17.984C182.65 17.664 182.703 17.3653 182.703 17.088C182.703 16.8107 182.629 16.5973 182.479 16.448C182.351 16.2987 182.159 16.224 181.903 16.224C181.413 16.224 180.954 16.448 180.527 16.896C180.101 17.3227 179.759 17.9093 179.503 18.656C179.247 19.4027 179.119 20.224 179.119 21.12C179.119 23.5947 180.197 24.832 182.351 24.832C183.226 24.832 184.165 24.544 185.167 23.968C186.191 23.3707 187.194 22.4853 188.175 21.312C188.431 21.0133 188.719 20.864 189.039 20.864C189.317 20.864 189.53 20.992 189.679 21.248C189.85 21.504 189.935 21.856 189.935 22.304C189.935 23.1147 189.733 23.776 189.327 24.288C188.325 25.5253 187.119 26.4853 185.711 27.168C184.325 27.8293 182.981 28.16 181.679 28.16ZM192.785 16.128C192.742 17.1947 192.721 18.0267 192.721 18.624C192.721 20.16 192.795 21.3653 192.945 22.24C193.115 23.0933 193.382 23.712 193.745 24.096C194.129 24.4587 194.651 24.64 195.313 24.64C195.654 24.64 196.059 24.5333 196.529 24.32C196.998 24.1067 197.425 23.8293 197.809 23.488C198.043 23.2747 198.278 23.168 198.513 23.168C198.769 23.168 198.971 23.3173 199.121 23.616C199.291 23.8933 199.377 24.2347 199.377 24.64C199.377 25.0453 199.291 25.44 199.121 25.824C198.971 26.208 198.737 26.528 198.417 26.784C197.307 27.7013 196.049 28.16 194.641 28.16C192.614 28.16 191.131 27.3173 190.193 25.632C189.254 23.9253 188.785 21.7067 188.785 18.976C188.785 18.0373 188.817 17.088 188.881 16.128H187.633C186.993 16.128 186.555 16.0107 186.321 15.776C186.107 15.5413 186.001 15.168 186.001 14.656C186.001 13.4613 186.481 12.864 187.441 12.864H189.265C189.627 10.5173 190.182 8.37333 190.929 6.432C191.675 4.49067 192.571 2.944 193.617 1.792C194.683 0.639999 195.825 0.0639992 197.041 0.0639992C197.937 0.0639992 198.641 0.458666 199.153 1.248C199.665 2.03733 199.921 3.02933 199.921 4.224C199.921 7.53067 198.534 10.4107 195.761 12.864H199.345C199.686 12.864 199.931 12.9387 200.081 13.088C200.23 13.2373 200.305 13.5147 200.305 13.92C200.305 15.392 199.099 16.128 196.689 16.128H192.785ZM196.177 3.136C195.857 3.136 195.494 3.54133 195.089 4.352C194.705 5.14133 194.331 6.25067 193.969 7.68C193.627 9.088 193.339 10.656 193.105 12.384C194.363 11.296 195.302 10.08 195.921 8.736C196.561 7.37067 196.881 6.13333 196.881 5.024C196.881 3.76533 196.646 3.136 196.177 3.136Z" fill="#B71C1C"/>
</svg>
